<svg class="svg-icon" style="width: 1.25em; height: 1em;vertical-align: middle;fill: currentColor;overflow: hidden;" viewBox="0 0 1280 1024" version="1.1" xmlns="http://www.w3.org/2000/svg"><path d="M1102.25198 583.8c-44.8 0.2-83.6 11-116 27-11.8-23.8-24-44.6-26-60.2-2.4-18.2-5-29-2.2-50.6s15.4-52.2 15.2-54.4c-0.2-2.2-2.8-13.2-28.6-13.4-25.8-0.2-48 5-50.6 11.8-2.6 6.8-7.6 22.2-10.6 38.2-4.6 23.4-51.6 107-78.2 150.6-8.8-17-16.2-32-17.8-44-2.4-18.2-5-29-2.2-50.6s15.4-52.2 15.2-54.4c-0.2-2.2-2.8-13.2-28.6-13.4-25.8-0.2-48 5-50.6 11.8-2.6 6.8-5.4 22.8-10.6 38.2-5.2 15.4-67.8 154.6-84.2 190.8-8.4 18.4-15.6 33.2-20.8 43.2s-0.4 0.6-0.8 1.8c-4.4 8.6-7 13.4-7 13.4v0.2c-3.4 6.4-7.2 12.2-9 12.2-1.2 0-3.8-16.8 0.6-39.8 9.4-48.4 31.6-123.6 31.4-126.2-0.2-1.4 4.2-14.4-14.6-21.4-18.2-6.6-24.8 4.4-26.4 4.4-1.6 0-2.8 4-2.8 4s20.2-84.8-38.8-84.8c-36.8 0-88 40.4-113.2 77-15.8 8.6-50 27.2-86 47-13.8 7.6-28 15.4-41.4 22.8-1-1-1.8-2-2.8-3-71.6-76.4-203.8-130.4-198.2-233 2-37.4 15-135.6 254.2-254.8 196-97.6 352.8-70.8 379.8-11.2 38.8 85-83.8 243.2-287.4 266-77.6 8.6-118.4-21.4-128.6-32.6-10.6-11.8-12.2-12.4-16.2-10.2-6.6 3.6-2.4 14 0 20.2 6 15.8 31 43.8 73.6 57.8 37.4 12.2 128.4 19 238.4-23.6C734.05198 393 830.25198 260.4 802.05198 149.4 773.25198 36.6 586.25198-0.4 409.25198 62.4 303.85198 99.8 189.85198 158.6 107.85198 235.2 10.45198 326.4-5.14802 405.8 1.25198 439c22.8 117.8 185.2 194.6 250.2 251.4-3.2 1.8-6.2 3.4-9 5-32.6 16.2-156.4 81-187.4 149.4-35 77.6 5.8 133.2 32.6 140.8 83.6 23.2 169.2-18.6 215.2-87.2s40.4-158.2 19.2-199c-0.2-0.6-0.6-1-0.8-1.6 8.4-5 17-10 25.6-15 16.6-9.8 32.8-18.8 47-26.6-8 21.6-13.8 47.6-16.8 85.2-3.6 44 14.6 101 38.2 123.4 10.4 9.8 23 10 30.8 10 27.6 0 40-22.8 53.8-50 17-33.2 32-71.8 32-71.8s-18.8 104.4 32.6 104.4c18.8 0 37.6-24.2 46-36.6v0.2s0.4-0.8 1.4-2.4c2-3 3-4.8 3-4.8v-0.6c7.6-13 24.2-42.8 49.2-92 32.4-63.6 63.4-143 63.4-143s2.8 19.4 12.4 51.6c5.6 19 17.4 39.8 26.8 60-7.6 10.4-12.2 16.4-12.2 16.4s0 0.2 0.2 0.4c-6 8-12.8 16.6-19.8 25-25.6 30.4-56 65.2-60 75.2-4.8 11.8-3.6 20.6 5.6 27.4 6.8 5.2 18.8 6 31.4 5 23-1.6 39.2-7.2 47-10.8 12.4-4.4 26.8-11.4 40.4-21.2 25-18.4 40.2-44.8 38.8-79.6-0.8-19.2-7-38.4-14.6-56.4 2.2-3.2 4.6-6.6 6.8-10 39.6-57.8 70.2-121.2 70.2-121.2s2.8 19.4 12.4 51.6c4.8 16.2 14.2 34 22.8 51.4-37.2 30.2-60.2 65.2-68.2 88.2-14.8 42.6-3.2 61.8 18.6 66.2 9.8 2 23.8-2.6 34.2-7 13-4.4 28.6-11.4 43.2-22.2 25-18.4 49.2-44.2 47.6-79.2-0.6-15.8-5-31.6-10.8-46.8 31.4-13.2 72.2-20.4 124.2-14.4 111.4 13 133.2 82.6 129 111.6-4.2 29.2-27.6 45.2-35.4 50-7.8 4.8-10.2 6.6-9.6 10.2 1 5.2 4.6 5 11.2 3.8 9.2-1.6 58.4-23.6 60.6-77.4 3.2-68-62.2-142.8-178-142.2zM243.65198 873.2c-36.8 40.2-88.4 55.4-110.6 42.6C109.25198 902 118.65198 842.8 164.05198 800c27.6-26 63.2-50 86.8-64.8 5.4-3.2 13.2-8 22.8-13.8 1.6-1 2.4-1.4 2.4-1.4 1.8-1.2 3.8-2.2 5.8-3.4 16.6 60.8 0.6 114.4-38.2 156.6z m268.8-182.8c-12.8 31.4-39.8 111.4-56.2 107.2-14-3.6-22.6-64.6-2.8-124.6 10-30.2 31.2-66.2 43.8-80.2 20.2-22.6 42.4-29.8 47.6-20.8 7 11.8-24.4 98.8-32.4 118.4z m222 106c-5.4 2.8-10.4 4.6-12.8 3.2-1.8-1 2.2-4.8 2.2-4.8s27.8-29.8 38.8-43.4c6.4-8 13.8-17.4 21.8-27.8 0 1 0.2 2 0.2 3.2-0.2 35.8-34.6 60-50.2 69.6z m171.2-39c-4-2.8-3.4-12.2 10-41.4 5.2-11.4 17.2-30.6 38-49 2.4 7.6 3.8 14.8 3.8 21.6-0.2 45-32.4 61.8-51.8 68.8z" fill="" /></svg>